<?xml version="1.0" standalone="no"?>
<!DOCTYPE svg PUBLIC "-//W3C//DTD SVG 20010904//EN"
 "http://www.w3.org/TR/2001/REC-SVG-20010904/DTD/svg10.dtd">
<svg version="1.0" xmlns="http://www.w3.org/2000/svg"
 width="1280.000000pt" height="1247.000000pt" viewBox="0 0 1280.000000 1247.000000"
 preserveAspectRatio="xMidYMid meet">

<g transform="translate(0.000000,1247.000000) scale(0.100000,-0.100000)"
fill="#000000" stroke="none">
<path d="M2554 10803 c-163 -139 -459 -430 -600 -593 -87 -100 -132 -154 -273
-330 -181 -226 -439 -642 -603 -974 -159 -319 -317 -725 -393 -1011 -14 -49
-36 -133 -50 -185 -27 -98 -92 -424 -119 -590 -41 -250 -66 -671 -60 -990 6
-330 44 -780 65 -780 5 0 18 9 29 20 11 11 31 22 46 26 14 4 36 17 49 30 13
13 33 24 45 24 11 0 20 4 20 9 0 5 35 28 77 51 42 23 86 51 97 62 12 11 33 22
49 25 15 3 27 9 27 13 0 10 145 100 163 100 8 0 17 6 20 14 7 19 91 76 111 76
9 0 16 4 16 9 0 7 75 60 207 146 9 6 26 19 38 30 36 33 168 120 177 118 4 -2
8 0 8 5 0 4 28 28 61 52 34 25 78 60 99 78 21 17 43 32 49 32 6 0 11 4 11 9 0
5 21 25 47 44 27 19 81 60 120 91 40 31 75 56 77 56 3 0 18 12 34 28 36 34
107 94 147 124 17 13 44 37 61 53 16 17 90 82 164 145 74 63 176 152 226 198
50 45 96 82 102 82 11 0 101 65 145 105 15 14 32 25 38 25 6 0 17 7 26 15 23
23 269 185 281 185 6 0 22 10 36 23 13 13 59 41 101 62 42 22 81 45 87 52 6 7
17 13 24 13 8 0 14 4 14 9 0 5 21 18 48 30 59 27 150 76 180 98 13 9 58 32
100 51 42 20 79 38 82 43 5 7 100 51 168 78 17 8 32 17 32 21 0 7 17 15 130
60 30 12 73 33 95 46 22 12 63 30 90 39 28 10 87 35 132 56 45 21 90 39 100
39 10 0 27 7 37 15 11 8 27 15 35 15 9 0 47 16 85 35 39 19 85 35 103 35 18 0
33 4 33 8 0 5 19 15 43 22 23 7 62 22 87 32 25 11 54 23 65 27 11 5 63 21 115
37 52 15 121 38 153 50 32 13 79 26 105 29 26 4 61 13 77 20 51 23 227 74 280
80 28 4 59 10 70 16 38 17 330 88 381 92 28 2 55 7 60 10 20 12 423 87 499 93
22 1 119 14 215 28 188 27 416 51 570 61 52 4 111 8 130 10 19 2 84 4 143 4
119 1 130 9 65 46 -20 11 -61 37 -92 58 -31 20 -59 37 -62 37 -4 0 -36 21 -73
48 -36 26 -77 53 -91 60 -14 7 -50 28 -80 47 -30 19 -75 46 -100 60 -25 14
-65 39 -90 55 -25 16 -59 36 -77 44 -17 8 -55 30 -85 48 -29 19 -89 54 -133
77 -44 24 -85 47 -91 52 -7 5 -52 30 -100 54 -49 24 -100 50 -114 58 -30 17
-163 85 -202 104 -61 29 -88 42 -154 75 -38 19 -91 45 -119 58 -27 12 -77 35
-109 51 -33 16 -63 29 -67 29 -5 0 -55 23 -112 50 -57 28 -109 50 -116 50 -7
0 -51 18 -98 40 -47 23 -112 50 -145 61 -33 11 -67 24 -76 29 -32 18 -147 62
-197 76 -27 8 -65 21 -83 30 -39 18 -129 50 -192 69 -25 7 -99 32 -165 55 -66
24 -142 49 -170 56 -89 23 -220 63 -236 73 -8 5 -42 14 -75 21 -32 7 -113 28
-179 47 -66 20 -165 46 -220 58 -212 47 -291 67 -331 80 -22 7 -72 17 -110 20
-38 4 -73 9 -77 12 -7 4 -186 40 -387 78 -41 7 -100 16 -130 18 -30 3 -138 17
-240 30 -102 14 -208 28 -236 31 l-50 6 -140 -117z"/>
<path d="M5366 6262 c-4 -7 -3 -12 2 -12 5 0 12 -20 15 -45 4 -25 15 -82 26
-127 11 -46 26 -114 35 -153 40 -187 39 -182 47 -155 4 14 28 115 54 225 26
110 51 208 56 217 5 10 9 26 8 35 0 11 -3 13 -6 6 -2 -7 -11 -13 -19 -13 -9 0
-12 -4 -9 -10 3 -5 1 -10 -4 -10 -6 0 -11 -7 -11 -15 0 -8 -9 -24 -20 -35 -11
-11 -17 -20 -12 -21 4 0 -4 -5 -17 -10 -28 -11 -70 11 -78 42 -3 10 -9 16 -14
13 -5 -3 -9 4 -9 14 0 27 -35 69 -44 54z m31 -54 c-3 -8 -6 -5 -6 6 -1 11 2
17 5 13 3 -3 4 -12 1 -19z"/>
<path d="M5956 6200 c-7 -23 -9 -23 -13 -5 -7 24 -17 -5 -104 -280 -33 -104
-64 -199 -69 -210 -8 -19 -21 -61 -102 -330 -16 -55 -33 -109 -38 -120 -4 -11
-11 -28 -14 -37 -5 -16 -22 -18 -164 -18 l-160 0 -10 38 c-5 20 -26 98 -46
172 -19 74 -45 169 -56 210 -12 41 -30 107 -40 145 -10 39 -23 84 -28 100 -6
17 -24 82 -42 145 -17 63 -36 134 -43 158 l-12 43 -12 -33 c-11 -33 -11 -33
-12 -5 -1 17 -6 27 -16 27 -12 0 -15 -16 -15 -82 0 -46 -7 -173 -14 -283 -20
-271 -31 -635 -20 -635 28 0 64 174 64 315 0 73 16 134 41 158 22 21 29 21 29
2 0 -8 5 -15 10 -15 10 0 60 -103 60 -124 0 -28 77 -249 83 -236 3 9 6 5 6
-11 1 -37 67 -104 116 -118 81 -22 242 -9 292 25 15 10 32 17 36 16 5 -1 5 8
2 20 -4 13 -4 20 0 16 8 -7 64 101 80 152 4 14 13 39 20 55 7 17 23 62 35 100
23 75 34 104 56 147 8 14 14 33 14 41 0 8 11 22 24 30 19 13 26 14 35 3 10
-12 24 -144 36 -331 7 -119 15 -175 26 -175 5 0 9 -10 9 -22 1 -25 26 -65 35
-56 5 5 -10 427 -20 563 -2 28 -6 126 -9 219 -4 96 -11 174 -17 182 -6 7 -14
25 -18 41 l-7 28 -8 -25z m31 -72 c-3 -8 -6 -5 -6 6 -1 11 2 17 5 13 3 -3 4
-12 1 -19z"/>
<path d="M7433 6196 c-13 -15 -1 -81 18 -100 12 -13 12 -29 0 -22 -5 3 2 -28
14 -70 13 -41 34 -128 47 -192 12 -64 26 -120 31 -123 5 -4 7 -11 3 -17 -3 -6
-1 -23 5 -39 25 -65 59 -195 53 -206 -3 -7 1 -4 8 5 13 15 14 13 15 -19 1 -31
33 -86 33 -56 0 7 -4 15 -10 18 -5 3 -10 11 -10 16 0 6 5 7 10 4 12 -7 14 8 3
19 -8 8 -9 13 -12 42 0 8 -5 13 -9 10 -5 -3 -9 9 -9 27 -1 18 -6 55 -11 82 -6
28 -18 88 -26 135 -9 47 -18 94 -21 105 -7 37 -34 130 -59 205 -14 41 -30 95
-36 119 -9 34 -14 41 -22 30 -7 -10 -8 -6 -4 14 7 30 6 32 -11 13z"/>
<path d="M8902 5983 c-2 -224 8 -301 22 -172 9 89 6 378 -4 354 -6 -17 -8 -14
-12 15 -3 19 -6 -70 -6 -197z"/>
<path d="M7868 6185 c-3 -4 -2 -18 3 -33 30 -93 69 -229 69 -240 0 -7 4 -11 9
-7 6 3 9 -3 9 -12 -1 -17 51 -213 59 -223 2 -2 8 2 13 10 6 8 10 10 10 4 0 -5
-5 -15 -12 -22 -10 -10 -9 -18 5 -41 9 -15 14 -31 10 -35 -3 -3 -1 -6 6 -6 6
0 11 -6 9 -12 -3 -20 12 -58 23 -58 6 0 7 -9 4 -20 -4 -12 -1 -27 5 -35 6 -8
9 -18 7 -23 -3 -4 -2 -14 2 -21 6 -9 9 -3 9 15 0 16 -5 35 -11 42 -8 10 -7 16
2 21 9 6 9 15 2 32 -19 47 -24 64 -23 72 1 4 -2 7 -7 7 -5 0 -11 19 -15 43 -4
23 -19 80 -33 127 -15 47 -26 89 -25 94 2 4 -2 14 -9 22 -6 7 -7 19 -3 25 4 8
3 9 -4 5 -8 -5 -12 0 -12 14 0 20 -3 29 -28 77 -7 13 -12 30 -12 38 0 8 -4 15
-8 15 -5 0 -9 8 -9 18 1 9 -1 31 -2 47 -2 26 -3 28 -11 10 -8 -18 -9 -18 -9 5
-1 28 -14 53 -23 45z m212 -635 c0 -5 -2 -10 -4 -10 -3 0 -8 5 -11 10 -3 6 -1
10 4 10 6 0 11 -4 11 -10z"/>
<path d="M7260 6145 c-6 -8 -10 -20 -7 -27 3 -8 6 -6 6 6 1 12 6 16 16 12 9
-3 15 0 15 9 0 19 -14 19 -30 0z"/>
<path d="M8457 6137 c-8 -21 -9 -519 -1 -576 4 -28 11 -51 16 -51 5 0 8 136 8
320 -1 286 -6 351 -23 307z"/>
<path d="M12465 6130 c-55 -24 -190 -71 -216 -75 -17 -3 -78 -24 -137 -47 -59
-22 -141 -53 -182 -68 -244 -90 -624 -261 -830 -376 -113 -63 -275 -157 -280
-164 -3 -3 -50 -37 -105 -74 -195 -134 -313 -238 -449 -396 -100 -117 -126
-151 -162 -215 -33 -61 -72 -107 -231 -273 -68 -70 -123 -135 -123 -144 0 -11
17 -22 53 -34 28 -9 65 -23 81 -31 89 -46 613 -214 861 -277 50 -13 140 -37
200 -54 61 -16 151 -38 202 -47 56 -11 90 -22 86 -28 -3 -6 -1 -7 6 -3 6 4 19
0 28 -9 10 -10 25 -14 38 -11 13 3 38 3 56 -1 28 -5 30 -7 14 -14 -12 -5 0 -6
29 -2 27 3 46 2 43 -3 -3 -5 7 -9 21 -10 48 -2 92 -8 92 -14 0 -3 23 -6 50 -7
27 -2 103 -14 167 -28 65 -14 128 -28 140 -31 18 -3 27 4 44 38 57 111 218
525 263 678 14 47 32 108 41 135 41 126 126 501 150 656 9 57 20 131 26 164
40 261 76 776 53 774 -5 0 -18 -4 -29 -9z"/>
<path d="M7271 6109 c-1 -9 -12 -29 -26 -45 -21 -25 -26 -38 -25 -69 0 -3 -6
-18 -14 -33 -7 -15 -17 -47 -20 -72 -4 -25 -11 -54 -16 -65 -4 -11 -22 -90
-39 -175 -17 -85 -40 -189 -51 -230 -12 -41 -21 -89 -22 -107 0 -18 -6 -37
-14 -44 -16 -13 -19 -29 -5 -29 14 0 51 87 51 122 0 22 3 29 9 20 6 -10 10 -8
14 10 2 12 16 61 30 108 27 95 40 140 43 155 1 6 3 12 4 15 1 3 3 21 4 40 1
20 5 41 9 47 7 12 30 127 47 241 6 35 15 72 21 83 6 11 8 25 5 32 -2 7 -5 6
-5 -4z"/>
<path d="M3671 6078 c-1 -32 2 -38 19 -38 11 0 20 5 20 10 0 6 -4 10 -9 10 -5
0 -14 12 -19 28 -10 27 -10 26 -11 -10z"/>
<path d="M3462 6070 c0 -14 2 -19 5 -12 2 6 2 18 0 25 -3 6 -5 1 -5 -13z"/>
<path d="M4570 6041 c0 -17 -4 -33 -10 -36 -5 -3 -10 -23 -10 -43 0 -20 -7
-77 -16 -127 -8 -49 -19 -172 -23 -271 -5 -100 -12 -188 -17 -195 -19 -31 -13
-166 7 -154 5 4 13 -4 18 -17 6 -16 10 8 16 87 4 61 8 122 10 136 2 14 6 79
10 145 3 65 8 130 10 144 7 43 17 360 11 360 -3 0 -6 -13 -6 -29z"/>
<path d="M6407 6024 c-6 -29 -3 -162 8 -359 3 -55 10 -176 15 -270 5 -93 11
-179 12 -190 3 -19 -4 -20 -202 -25 -113 -3 -194 -7 -180 -8 19 -2 22 -5 11
-11 -16 -10 -22 -10 148 -17 69 -3 123 -1 135 5 12 6 40 15 64 21 23 6 42 16
42 21 0 6 11 24 24 40 26 31 27 70 6 151 -10 36 -21 208 -20 301 0 20 -3 37
-8 37 -5 0 -14 65 -20 144 -7 79 -16 154 -20 167 -9 22 -9 22 -15 -7z"/>
<path d="M3447 6033 c-4 -3 -7 -17 -7 -30 0 -13 -4 -22 -9 -19 -4 3 -6 -6 -3
-19 5 -28 22 -44 23 -23 0 7 2 32 5 56 5 42 3 48 -9 35z"/>
<path d="M3692 5988 c3 -24 8 -52 12 -63 6 -16 6 -17 -3 -5 -14 19 -14 13 0
-30 6 -19 12 -48 14 -65 3 -41 34 -175 42 -189 4 -6 6 -19 4 -30 -1 -10 2 -15
7 -12 6 4 8 -3 4 -16 -3 -14 -2 -19 6 -14 8 5 12 0 12 -12 0 -25 38 -144 50
-156 4 -4 6 -15 3 -24 -5 -10 -2 -13 6 -8 8 5 12 3 10 -5 -3 -27 1 -40 11 -34
6 3 10 -4 11 -17 0 -13 4 -32 9 -43 6 -13 8 -2 4 35 -5 59 -10 83 -24 115 -5
11 -18 54 -30 95 -11 41 -25 89 -30 105 -4 17 -14 57 -20 89 -7 33 -19 78 -27
100 -7 23 -16 66 -18 96 -3 60 -29 130 -46 130 -7 0 -9 -16 -7 -42z m25 -20
c-3 -8 -6 -5 -6 6 -1 11 2 17 5 13 3 -3 4 -12 1 -19z"/>
<path d="M6817 5981 c-4 -17 -3 -21 5 -13 5 5 8 16 6 23 -3 8 -7 3 -11 -10z"/>
<path d="M6790 5946 c0 -8 5 -18 10 -21 6 -3 10 1 10 9 0 8 -4 18 -10 21 -5 3
-10 -1 -10 -9z"/>
<path d="M3413 5927 c3 -8 1 -32 -4 -53 -6 -22 -12 -49 -14 -61 -2 -12 -10
-52 -19 -87 -9 -36 -18 -78 -19 -95 -1 -16 -5 -27 -8 -25 -8 5 -21 -57 -14
-64 3 -3 5 2 5 11 0 9 6 17 13 17 14 0 40 65 40 98 0 9 4 20 9 23 5 3 9 27 10
52 0 26 4 44 9 41 5 -3 9 4 9 15 0 12 -5 21 -12 21 -6 0 -4 6 7 13 13 11 16
21 11 42 -4 16 -3 31 3 34 6 4 1 12 -11 20 -18 11 -20 11 -15 -2z"/>
<path d="M4156 5925 c4 -8 10 -15 16 -15 5 0 8 -8 7 -17 -4 -41 2 -63 16 -63
8 0 15 9 15 21 0 11 -4 17 -10 14 -6 -3 -10 4 -10 17 -1 22 -21 58 -33 58 -4
0 -4 -7 -1 -15z"/>
<path d="M6774 5886 c6 -26 -8 -46 -17 -24 -3 7 -6 1 -6 -14 -1 -16 -4 -28 -9
-28 -4 0 -13 -21 -20 -47 -7 -27 -17 -64 -23 -83 -6 -19 -11 -43 -12 -52 -1
-10 -5 -18 -9 -18 -4 0 -8 -6 -8 -14 0 -8 -11 -41 -24 -73 -34 -82 -74 -193
-81 -227 -5 -23 -8 -27 -16 -15 -7 11 -9 9 -9 -8 0 -12 11 -39 25 -59 14 -20
25 -30 25 -21 0 8 3 24 6 34 5 15 4 15 -5 3 -9 -13 -11 -13 -11 3 0 9 6 17 13
17 16 0 81 203 74 236 -2 13 0 21 4 18 9 -5 26 30 33 65 2 9 8 29 14 44 7 16
12 35 12 43 0 8 4 22 10 32 5 9 20 58 33 109 21 79 23 93 10 97 -12 5 -14 1
-9 -18z m-17 -98 c-3 -8 -6 -5 -6 6 -1 11 2 17 5 13 3 -3 4 -12 1 -19z m-187
-528 c0 -5 -2 -10 -4 -10 -3 0 -8 5 -11 10 -3 6 -1 10 4 10 6 0 11 -4 11 -10z"/>
<path d="M4193 5804 c4 -11 9 -32 12 -49 4 -16 22 -75 40 -130 28 -84 60 -186
101 -325 5 -14 8 -28 9 -32 0 -3 3 -10 8 -14 4 -4 7 -16 7 -26 0 -18 1 -19 17
-2 13 13 14 19 5 22 -6 2 -12 8 -12 13 0 6 5 7 10 4 15 -9 12 41 -3 57 -7 7
-21 45 -31 83 -11 39 -24 89 -31 113 -6 23 -15 39 -19 35 -5 -4 -5 3 -1 16 4
15 3 21 -3 17 -5 -3 -12 7 -15 22 -12 61 -29 118 -38 127 -5 5 -9 19 -9 32 0
16 -4 21 -16 16 -11 -4 -15 -1 -12 12 2 10 -3 20 -11 23 -9 3 -11 -1 -8 -14z"/>
<path d="M3346 5535 c-3 -9 -6 -24 -5 -33 0 -9 5 -4 10 12 9 32 6 48 -5 21z"/>
<path d="M3322 5490 c0 -19 2 -27 5 -17 2 9 2 25 0 35 -3 9 -5 1 -5 -18z"/>
<path d="M3296 5413 c-6 -14 -5 -15 5 -6 7 7 10 15 7 18 -3 3 -9 -2 -12 -12z"/>
<path d="M4251 5171 c-9 -6 1 -10 32 -12 25 -2 43 -1 41 3 -2 3 4 9 13 11 10
3 -2 5 -27 6 -25 0 -51 -3 -59 -8z"/>
<path d="M4546 5169 c3 -5 9 -7 13 -4 5 2 17 -2 27 -10 22 -17 259 -22 269 -5
3 5 20 14 38 19 23 7 -24 10 -161 9 -117 0 -190 -3 -186 -9z"/>
<path d="M6616 5172 c-3 -6 32 -10 91 -11 54 -1 95 0 93 2 -11 10 -178 18
-184 9z"/>
<path d="M11328 3793 c7 -3 16 -2 19 1 4 3 -2 6 -13 5 -11 0 -14 -3 -6 -6z"/>
</g>
</svg>
